<?xml version="1.0" encoding="iso-8859-1"?>
<!-- Uploaded to: SVG Repo, www.svgrepo.com, Generator: SVG Repo Mixer Tools -->
<svg fill="#000000" version="1.1" id="Layer_1" xmlns="http://www.w3.org/2000/svg" xmlns:xlink="http://www.w3.org/1999/xlink" 
	 viewBox="0 0 512 512" xml:space="preserve">
<g>
	<g>
		<g>
			<path d="M439.714,460.582l-36.062,6.359l-25.829-146.486c36.06-14.235,58.444-52.373,51.456-92.004L400.828,67.085
				L256.001,92.621L111.175,67.085L82.722,228.451c-6.988,39.631,15.396,77.769,51.456,92.004l-25.829,146.486l-36.062-6.359
				l-5.801,32.9L171.508,512l5.801-32.9l-36.06-6.359l25.832-146.504c38.75-1.047,72.83-29.211,79.817-68.838L256,205.778
				l9.103,51.622c6.988,39.63,41.064,67.791,79.817,68.838l25.832,146.504l-36.06,6.359l5.801,32.9l105.021-18.518L439.714,460.582z
				 M213.999,251.598c-4.783,27.122-30.74,45.299-57.861,40.515c-24.476-4.316-41.659-25.877-41.265-49.976l102.194-7.933
				L213.999,251.598z M223.057,200.23l-102.843,7.983l18.061-102.427l98.375,17.346L223.057,200.23z M275.352,123.134l98.376-17.346
				l18.06,102.427l-102.843-7.983L275.352,123.134z M355.865,292.113c-27.124,4.782-53.078-13.392-57.861-40.515l-3.067-17.394
				l102.194,7.933C397.523,266.236,380.341,287.797,355.865,292.113z"/>
			<rect x="239.302" width="33.408" height="51.945"/>
			
				<rect x="162.996" y="16.87" transform="matrix(0.7071 0.7071 -0.7071 0.7071 79.0877 -123.7871)" width="51.944" height="33.408"/>
			
				<rect x="306.322" y="7.6" transform="matrix(0.7071 0.7071 -0.7071 0.7071 118.3511 -218.5807)" width="33.408" height="51.944"/>
		</g>
	</g>
</g>
</svg>